# xmcd
#
# Track frame offsets: 
#        150
#        14661
#        31135
#        45313
#        61740
#        79040
#        90062
#        104598
#        117856
#        133811
#        148112
#        164036
#        179169
#        194661
#        208301
#        226827
#        242632
#        256953
#        271428
#        288173
#
# Disc length: 4025 seconds
#
# Revision: 0
# Processed by: cddbd v1.5.2PL0 Copyright (c) Steve Scherf et al.
# Submitted via: ExactAudioCopy v0.99pb4
#
DISCID=230fb714
DTITLE=Various Artist - Schlager Festival 2011 - CD 2
DYEAR=2011
DGENRE=Pop-Folk
TTITLE0=Luc Steeno - Neem Me Een Keer In Je Armen
TTITLE1=Jo Vally - Santa Maria Van De Zee
TTITLE2=Marva - Rode Rozen In De Sneeuw
TTITLE3=Will Tura - La Melodia
TTITLE4=Sanne - Het Huis Dat Tussen Rozen Stond
TTITLE5=Willeke Alberti - Spiegelbeeld
TTITLE6=Andrea Berg - Ein Bisschen Wahnsinn
TTITLE7=Freddy Breck - Die Sonne Geht Auf
TTITLE8=Henk Damen - Ik Wil Jou Voor Altijd
TTITLE9=Rein Mercha - Ik Vind Jou Leuk Hoe Vind Je Mij
TTITLE10=Grad Damen - Mag Je Dochter Mee Op Stap
TTITLE11=Hansi Hinterseer - Tiroler Berge
TTITLE12=Klostertaler - Elena Elena
TTITLE13=Sha-Na - Ladies Night
TTITLE14=Sam Gooris - Laat Het Gras Maar Groeien
TTITLE15=Johan Verminnen - In De Rue Des Bouchers
TTITLE16=Bart Kaëll - Hallo Goeie Morgen
TTITLE17=Christoff - 't Is Weer Tijd Voor De Polonaise
TTITLE18=Laura Lynn and Frans Bauer - Als Ik De Lichtjes In Jouw Ogen Zi
TTITLE18=e
TTITLE19=Lindsay and The Sunsets - Deze Nacht Mag Eeuwig Duren
EXTD=
EXTT0=
EXTT1=
EXTT2=
EXTT3=
EXTT4=
EXTT5=
EXTT6=
EXTT7=
EXTT8=
EXTT9=
EXTT10=
EXTT11=
EXTT12=
EXTT13=
EXTT14=
EXTT15=
EXTT16=
EXTT17=
EXTT18=
EXTT19=
PLAYORDER=
